<svg enable-background="new 0 0 140 140" height="512" viewBox="0 0 140 140" width="512" xmlns="http://www.w3.org/2000/svg"><circle cx="70" cy="70" fill="#dbd8dd" r="64"/><path d="m99.6742783 33.9965172-.1199951-.1099854v.0100098c-7.1599732-6.6799946-16.5499879-10.4500141-26.4000245-10.4500141h-.5999756c-.1799927 0-2.0700073.0100098-3.3599854.0100098h-.9299927l-1.3200073-.0100098c-11.460022 0-22.2999878 5.0400391-29.7300415 13.830019-7.7299805 9.1500244-10.9199829 21.1400146-8.7399902 32.9099693.0800171.4100342.2800293.7800293.5499878 1.0599976l2.7000122 2.7000122 3.7000122 19.9899902c.0800171.4000244.289978.75.5800171.9900513l3.6300049 3.6399536.4500122 2.6600342c.1499634.8800049.5599976 1.6799927 1.1699829 2.3200073l-.0300293.039978 30.6216431 30.3668289c34.4902954-.9795532 62.1541061-29.226265 62.1541061-63.9533768 0-.5369873-.0273438-1.0672607-.0404663-1.6010742l-32.4752731-32.5823936c-.5899658-.6199951-1.1900024-1.2299805-1.8099975-1.8200073z" opacity=".1"/><path d="m87.7603226 106.9696808h-.0000076c-2.4962387-.4177094-4.181221-2.7799377-3.763504-5.2761765l3.641922-21.7639847c.417717-2.4962387 2.7799454-4.181221 5.2761841-3.763504h.0000076c2.4962387.417717 4.181221 2.7799377 3.763504 5.2761841l-3.641922 21.7639771c-.4177094 2.4962387-2.7799378 4.181221-5.2761841 3.763504z" fill="#293b44"/><path d="m101.7535019 82.2850266-2.2018814-3.0869904c-.6774826-.9497299-1.704483-1.5914612-2.8550797-1.7840042l-1.6326752-.273201-4.9571533 29.6237335 1.6371307.2739563c1.1514664.1926804 2.3323135-.0803299 3.2823639-.7588272l3.0822525-2.2012024c.9486237-.6774826 1.5895538-1.7038727 1.7819443-2.8536148l2.62043-15.6595535c.1925354-1.1505966-.0798873-2.3305664-.7573318-3.2802963z" fill="#344d5b"/><path d="m52.2116776 106.9696808h.0000114c2.4962387-.4177094 4.1812172-2.7799377 3.763504-5.2761765l-3.641922-21.7639847c-.4177132-2.4962387-2.7799416-4.181221-5.2761841-3.763504h-.0000076c-2.4962387.417717-4.1812172 2.7799377-3.763504 5.2761841l3.641922 21.7639771c.4177131 2.4962387 2.7799415 4.181221 5.2761803 3.763504z" fill="#293b44"/><path d="m38.218502 82.2850266 2.2018852-3.0869904c.6774788-.9497299 1.7044792-1.5914612 2.8550797-1.7840042l1.6326752-.273201 4.9571533 29.6237335-1.6371346.2739563c-1.1514664.1926804-2.3323135-.0803299-3.2823677-.7588272l-3.0822487-2.2012024c-.9486237-.6774826-1.58955-1.7038727-1.7819443-2.8536148l-2.6204261-15.6595535c-.1925392-1.1505966.0798836-2.3305664.757328-3.2802963z" fill="#344d5b"/><g fill="#293b44"><path d="m102.7845688 37.2753029c-7.4277649-8.790453-18.229248-13.8319645-29.6347733-13.8319645l-.5921555.0041008c-.1796112.0032806-2.070488.0106621-3.3601837.0106621l-.93293-.0024605-1.3175888-.0106621c-11.4670372 0-22.3037872 5.0406914-29.7315483 13.8303242-7.7308083 9.1496849-10.918354 21.1444969-8.744524 32.9096642.1807938.978447 1.0340652 1.6884995 2.0290699 1.6884995h4.344223c1.2897491 0 2.263382-1.16996 2.0290222-2.4383316l-.1433258-.7756653c-1.7149467-9.2809067.8000679-18.7438889 6.9004021-25.9629211 5.8300934-6.8991701 14.2715684-10.8556119 23.1608506-10.8556119.1710052 0 1.7293091.0164032 1.7293091.0164032.7590561.0073814 2.0430069.0188637 2.8188782.0188637.3707123 0 .6134796 0 .8127747-.0139427l.5388489-.0164032.4568253-.0041008c8.9294739 0 17.3935013 3.9564419 23.2219543 10.8547916 6.1003342 7.2190323 8.6153488 16.6820145 6.9003983 25.9629211l-.1433182.7756653c-.2343063 1.2683716.7393188 2.4383316 2.029068 2.4383316h4.344223c.994957 0 1.8482285-.7100525 2.0290222-1.6884995 2.173828-11.7651672-1.0137178-23.7599792-8.7445222-32.9096641z"/><path d="m100.8602524 38.9018593c-6.9656067-8.2434082-17.0379639-12.9388123-27.7102738-12.9388123-.1820755 0-.3657913.0016403-.5486832.0041008-.1743851.0028706-3.4188309.0164032-4.3611908.0082016l-.8418961-.0082016c-10.8912888-.1328659-21.1736069 4.5510578-28.2581329 12.9347115-7.2419968 8.570652-10.2273712 19.8059998-8.19133 30.8256416l4.4739609 24.2135239c.1496811.8095016.8554268 1.374588 1.6497498 1.374588.1012878 0 .2042198-.0090256.307148-.0278854.912426-.1689529 1.5152435-1.0448837 1.3466988-1.9569016l-4.4739609-24.2135239c-1.8527374-10.026432.8640366-20.2488823 7.453598-28.0469437 6.4320869-7.6110649 15.7683563-11.9111557 25.6406021-11.7438431l.8640366.0082016c.8988876.0082016 3.6823502.0374203 3.7746201.0118923.2224731-.0065613.4480667-.0170193.6677628-.0200939 9.8328781-.1484489 19.2089233 4.1311378 25.6414261 11.7438431 6.5895538 7.7980614 9.3063278 18.0205116 7.4535904 28.0469437l-4.4739609 24.2135239c-.168541.9120178.4342728 1.7879486 1.3467026 1.9569016.1029282.0188599.2058563.0278854.3071442.0278854.7939148 0 1.5000687-.5650864 1.6497498-1.374588l4.4739609-24.2135239c2.0360411-11.0196419-.9493334-22.2549896-8.1913225-30.8256416z"/></g></svg>