<svg width="200" height="200" viewBox="0 0 200 200" fill="none" xmlns="http://www.w3.org/2000/svg">
<path d="M100 175.69C98.7526 175.689 97.5506 175.222 96.63 174.38L48.06 130H29.31C27.9839 130 26.7121 129.473 25.7745 128.535C24.8368 127.598 24.31 126.326 24.31 125V74.9999C24.31 73.6739 24.8368 72.4021 25.7745 71.4644C26.7121 70.5267 27.9839 69.9999 29.31 69.9999H48.06L96.63 25.6199C97.3459 24.9668 98.2362 24.5357 99.1926 24.3792C100.149 24.2227 101.13 24.3475 102.017 24.7385C102.904 25.1294 103.658 25.7696 104.187 26.5812C104.717 27.3928 104.999 28.3408 105 29.3099V170.69C105 172.016 104.473 173.288 103.536 174.225C102.598 175.163 101.326 175.69 100 175.69V175.69ZM34.31 120H50C51.2474 120.001 52.4494 120.468 53.37 121.31L95 159.31V40.6499L53.37 78.6499C52.4555 79.5063 51.2528 79.9881 50 79.9999H34.31V120Z" fill="#EEEEEE"/>
<path d="M119.4 122.53C118.412 122.53 117.446 122.237 116.624 121.688C115.802 121.139 115.162 120.359 114.783 119.447C114.404 118.534 114.304 117.529 114.496 116.56C114.688 115.591 115.162 114.7 115.86 114C119.568 110.284 121.65 105.249 121.65 100C121.65 94.7507 119.568 89.7158 115.86 86.0001C114.949 85.057 114.445 83.794 114.457 82.483C114.468 81.1721 114.994 79.918 115.921 78.991C116.848 78.0639 118.102 77.5381 119.413 77.5267C120.724 77.5153 121.987 78.0193 122.93 78.9301C128.51 84.5224 131.644 92.0999 131.644 100C131.644 107.9 128.51 115.478 122.93 121.07C121.993 122.005 120.724 122.53 119.4 122.53V122.53Z" fill="#EEEEEE"/>
<path d="M137.08 140.21C136.09 140.212 135.121 139.919 134.297 139.37C133.474 138.821 132.831 138.039 132.452 137.125C132.073 136.21 131.974 135.203 132.168 134.232C132.361 133.261 132.839 132.369 133.54 131.67C137.7 127.512 141 122.574 143.251 117.14C145.503 111.706 146.662 105.882 146.662 100C146.662 94.118 145.503 88.2937 143.251 82.8596C141 77.4256 137.7 72.4884 133.54 68.33C133.062 67.8687 132.682 67.317 132.419 66.707C132.157 66.097 132.02 65.4409 132.014 64.777C132.008 64.1131 132.134 63.4547 132.386 62.8402C132.637 62.2257 133.009 61.6674 133.478 61.198C133.947 60.7285 134.506 60.3573 135.12 60.1059C135.735 59.8544 136.393 59.7279 137.057 59.7337C137.721 59.7395 138.377 59.8774 138.987 60.1395C139.597 60.4015 140.149 60.7824 140.61 61.26C145.698 66.3469 149.734 72.3864 152.488 79.0335C155.242 85.6806 156.659 92.805 156.659 100C156.659 107.195 155.242 114.319 152.488 120.966C149.734 127.613 145.698 133.653 140.61 138.74C139.675 139.678 138.405 140.207 137.08 140.21Z" fill="#EEEEEE"/>
<path d="M152 155.13C151.012 155.13 150.046 154.837 149.224 154.288C148.402 153.739 147.762 152.959 147.383 152.047C147.004 151.134 146.904 150.129 147.096 149.16C147.288 148.191 147.762 147.3 148.46 146.6C160.817 134.24 167.759 117.478 167.759 100C167.759 82.5223 160.817 65.7601 148.46 53.4C147.982 52.9388 147.602 52.3871 147.339 51.7771C147.077 51.167 146.94 50.5109 146.934 49.847C146.928 49.1831 147.054 48.5247 147.306 47.9103C147.557 47.2958 147.929 46.7375 148.398 46.2681C148.867 45.7986 149.426 45.4273 150.04 45.1759C150.655 44.9245 151.313 44.798 151.977 44.8038C152.641 44.8095 153.297 44.9475 153.907 45.2095C154.517 45.4716 155.069 45.8525 155.53 46.33C162.578 53.378 168.169 61.7452 171.983 70.954C175.798 80.1627 177.761 90.0326 177.761 100C177.761 109.967 175.798 119.837 171.983 129.046C168.169 138.255 162.578 146.622 155.53 153.67C154.593 154.605 153.324 155.13 152 155.13Z" fill="#EEEEEE"/>
</svg>
