<svg width="269" height="269" viewBox="0 0 269 269" fill="none" xmlns="http://www.w3.org/2000/svg">
<g clip-path="url(#clip0)">
<path fill-rule="evenodd" clip-rule="evenodd" d="M93.373 23.911C75.421 26.865 71.595 38.471 71.595 51.178V208.454C66.111 206.776 60.064 205.831 53.696 205.831C28.985 205.831 8.95 219.849 8.95 237.153C8.95 254.457 28.985 268.475 53.696 268.475C78.407 268.475 98.442 254.457 98.442 237.153C98.442 235.566 98.219 234.019 97.894 232.496L98.442 232.679V103.555L232.68 84.378V190.557C227.196 188.879 221.149 187.934 214.781 187.934C190.071 187.934 170.035 201.952 170.035 219.256C170.035 236.56 190.071 250.578 214.781 250.578C238.617 250.578 258.047 237.524 259.396 221.07L259.527 221.101V0L93.373 23.911Z" fill="#EEEEEE"/>
</g>
<defs>
<clipPath id="clip0">
<rect width="268.476" height="268.476" fill="white"/>
</clipPath>
</defs>
</svg>
