<svg width="465" height="465" viewBox="0 0 465 465" fill="none" xmlns="http://www.w3.org/2000/svg">
<g clip-path="url(#clip0)">
<path d="M464.667 53.833C464.667 44.483 457.017 36.833 447.667 36.833H17C7.65 36.833 0 44.483 0 53.833V410.833C0 420.183 7.65 427.833 17 427.833H447.667C457.017 427.833 464.667 420.183 464.667 410.833V53.833ZM430.667 70.833V288.433L330.934 218.45C324.134 213.917 315.351 214.483 309.684 220.15L257.834 270.017L150.167 166.033C146.767 162.633 141.95 160.933 137.134 161.216C132.317 161.499 127.784 164.049 124.951 167.733L34.284 284.183V70.833H430.667ZM34 393.833V339.433L139.967 203.716L245.933 306C252.45 312.233 262.933 312.233 269.45 306L322.717 254.433L430.667 330.083V393.833H34V393.833Z" fill="#EEEEEE"/>
<path d="M273.983 200.033C292.116 200.033 306.85 185.3 306.85 167.166C306.85 149.032 292.117 134.3 273.983 134.3C255.849 134.3 241.116 149.033 241.116 167.167C241.116 185.301 255.85 200.033 273.983 200.033Z" fill="#EEEEEE"/>
</g>
<defs>
<clipPath id="clip0">
<rect width="464.667" height="464.667" fill="white"/>
</clipPath>
</defs>
</svg>
