<svg width="517" height="517" viewBox="0 0 517 517" fill="none" xmlns="http://www.w3.org/2000/svg">
<g clip-path="url(#clip0)">
<path d="M382.5 420.75H133.875V439.875H382.5V420.75Z" fill="#EEEEEE"/>
<path d="M267.75 133.875H133.875V153H267.75V133.875Z" fill="#EEEEEE"/>
<path d="M382.5 363.375H133.875V382.5H382.5V363.375Z" fill="#EEEEEE"/>
<path d="M267.75 76.5H133.875V95.625H267.75V76.5Z" fill="#EEEEEE"/>
<path d="M325.125 0H315.563H114.75C93.712 0 76.5 17.212 76.5 38.25V478.125C76.5 499.162 93.712 516.375 114.75 516.375H401.625C422.662 516.375 439.875 499.162 439.875 478.125V143.438V133.876L325.125 0ZM325.125 28.688L415.013 133.876H344.25C334.688 133.876 325.125 124.314 325.125 114.751V28.688ZM420.75 478.125C420.75 487.687 413.1 497.25 401.625 497.25H114.75C105.188 497.25 95.625 489.6 95.625 478.125V38.25C95.625 28.688 103.275 19.125 114.75 19.125H306V114.75C306 135.788 323.213 153 344.25 153H420.75V478.125Z" fill="#EEEEEE"/>
<path d="M382.5 306H133.875V325.125H382.5V306Z" fill="#EEEEEE"/>
<path d="M382.5 191.25H133.875V210.375H382.5V191.25Z" fill="#EEEEEE"/>
<path d="M382.5 248.625H133.875V267.75H382.5V248.625Z" fill="#EEEEEE"/>
</g>
<defs>
<clipPath id="clip0">
<rect width="516.375" height="516.375" fill="white"/>
</clipPath>
</defs>
</svg>
